<?xml version="1.0" encoding="UTF-8"?>
<svg id="_图稿" xmlns="http://www.w3.org/2000/svg" version="1.1" viewBox="0 0 1000 506.8">
  <!-- Generator: Adobe Illustrator 29.0.1, SVG Export Plug-In . SVG Version: 2.1.0 Build 192)  -->
  <defs>
    <style>
      .st0 {
        fill: #ff8c19;
      }
    </style>
  </defs>
  <path class="st0" d="M172.05,261.83c-56.37,53.3-64.9,88.58-48.69,106.29,27.01,29.53,122.7,10.27,180.01-55.64-88.79,28.29-144.35,23.23-131.32-50.65h0Z"/>
  <path class="st0" d="M541.19,399.17c47.03-44.1,76.71-49.4,90.6-35.08,23.14,23.88-10.17,69.23-67.71,113.48,27.9-72.24,39.04-85.52-22.89-78.4h0Z"/>
  <path class="st0" d="M73.04,257.66c-99.55,94.12-68.59,180.26-15.86,216.49,52.72,36.24,161.44,55.31,262.63-61.08-156.79,49.96-269.78-24.95-246.77-155.41Z"/>
  <path class="st0" d="M97.76,121.49c-12.91,60.76,5.64,85.52,34.23,86.95,47.65,2.38,123.2-60.02,127.49-128.5-62.25,63.87-118.34,90.82-161.72,41.55Z"/>
  <path class="st0" d="M618.2,132.92c51.21-59.56,40.64-92.46,3.7-104.35-61.58-19.81-198.68.58-236.18,91.46,53.76-50.95,179.6-53.35,232.48,12.89Z"/>
  <path class="st0" d="M420.68,262.1c60.61-66.24,101.52-60.83,122.63-23.09,35.19,62.92-5.4,183.32-80.69,244.02,12.52-83.24,43.88-201.37-41.94-220.93Z"/>
  <polygon class="st0" points="326.75 274.07 13.06 274.07 17.58 199.19 326.75 199.19 326.75 274.07"/>
  <polygon class="st0" points="322.23 109.83 13.06 109.83 17.58 34.95 326.75 34.95 322.23 109.83"/>
  <polygon class="st0" points="633.93 359.14 366.03 359.14 370.45 284.26 638.35 284.26 633.93 359.14"/>
  <polygon class="st0" points="643.04 491.39 357.93 491.39 362.61 416.52 647.72 416.52 643.04 491.39"/>
  <polygon class="st0" points="633.93 231.07 366.03 231.07 370.45 156.19 638.35 156.19 633.93 231.07"/>
  <path class="st0" d="M251.87,394.13v-163.06h74.88v141.48c-21.23,9.68-46.62,16.59-74.88,21.58h0Z"/>
  <path class="st0" d="M348.6,134.6V29.03h74.88v83.98c-21.23,9.68-46.62,16.59-74.88,21.58h0Z"/>
  <path class="st0" d="M469.42,59.44V3.09h74.88v69.63c-21.23,8.56-46.62-17.7-74.88-13.28h0Z"/>
  <path class="st0" d="M961.26,22.38c49.74,60.8,38.36,93.43,1.14,104.41-62.04,18.29-198.61-5.45-233.87-97.22,52.49,52.25,178.23,57.74,232.73-7.19Z"/>
  <path class="st0" d="M989.59,281.2c-50.16,96.43-160.5,97.28-198.76,35.93-38.26-61.36,22.87-202.83,104.39-233.69-45.33,86.81-56.53,173.21-41.59,197.35,23.41,37.83,105.17,16.65,135.96.42h0Z"/>
  <polygon class="st0" points="976.52 225.54 769.13 225.54 773.62 150.66 981.01 150.66 976.52 225.54"/>
  <polygon class="st0" points="976.52 454.72 769.13 454.72 773.62 379.84 981.01 379.84 976.52 454.72"/>
  <rect class="st0" x="681.91" y="29.03" width="74.88" height="462.36"/>
  <rect class="st0" x="867.17" y="243.68" width="77.71" height="247.71"/>
  <path class="st0" d="M820.34,76.72V13.01h74.88v62.98c-21.23,9.68-46.62-4.26-74.88.73Z"/>
</svg>